<svg xmlns="http://www.w3.org/2000/svg" width="56" height="57.701" viewBox="0 0 56 57.701">
  <g id="Layer_3" data-name="Layer 3" transform="translate(-5 -3.3)">
    <path id="Tracé_3" data-name="Tracé 3" d="M41.5,49.8a1,1,0,0,0,2,0c.2-1.8,1.3-3.1,3.4-3.9a1,1,0,0,0,0-1.9c-2.1-.8-3.2-2.1-3.4-3.9a1,1,0,0,0-2,0c-.2,1.8-1.3,3.1-3.4,3.9a.994.994,0,0,0,0,1.9C40.2,46.7,41.3,48,41.5,49.8ZM55.9,51c-2.1-.8-3.2-2.1-3.4-3.9a1,1,0,0,0-2,0c-.2,1.8-1.3,3.1-3.4,3.9a1,1,0,0,0,0,1.9c2.1.8,3.2,2.1,3.4,3.9a1,1,0,0,0,2,0c.2-1.8,1.3-3.1,3.4-3.9a1,1,0,0,0,0-1.9ZM60.1,4.2a2.9,2.9,0,0,0-4.2,0L27.6,32.5l4.2,4.2L60.1,8.4a2.9,2.9,0,0,0,0-4.2Zm-28.5,45,1.6-4a5.1,5.1,0,0,0-1.1-5.4l-7.6-7.6a5.1,5.1,0,0,0-5.4-1.1l-4,1.6Zm8.1,5.5c-3.9-.7-5.6,1.1-8.4-1.7a7.8,7.8,0,0,1-.2-1.4l-3.9-4a16.4,16.4,0,0,0,.3,6.2c.9,3.1,4.9,5.3,5,5.3L36,61h7a1,1,0,1,0,.1-2c-4-.2-7.1-1.1-9.1-2.4,1.8.2,3.3-.3,5.4,0,3.6.6,6.6,2.5,6.6,4.2h2C48,57.7,43.8,55.4,39.7,54.7Z" fill="#fff"/>
    <path id="Tracé_4" data-name="Tracé 4" d="M25.5,54.4c-.9-3.1-.3-7.1-.1-8.5l-4.9-5c-1,1.3-2.8,4.5-2.7,10.4h-2c-.1-6.7,2.1-10.4,3.2-11.8l-5.8-5.9C6,37.9,5,45.1,5,51s3.2,10,8,10H31.5C31.3,60.8,26.7,58.3,25.5,54.4ZM13.5,59A8.8,8.8,0,0,1,11,52.8a15.2,15.2,0,0,1,1.1-5.3,23.3,23.3,0,0,0,.1,5.9A13.1,13.1,0,0,0,14.9,59Zm8.4,0a10.4,10.4,0,0,1-1.3-5.8A20.7,20.7,0,0,0,23.4,59Z" fill="#fff"/>
  </g>
</svg>
