<svg xmlns="http://www.w3.org/2000/svg" width="115.095" height="113.027" viewBox="0 0 115.095 113.027">
  <g id="list" transform="translate(1548 1218)">
    <path id="Tracé_1" data-name="Tracé 1" d="M50,12A38,38,0,1,0,88,50,37.983,37.983,0,0,0,50,12Zm0,72A34,34,0,1,1,84,50,33.971,33.971,0,0,1,50,84ZM69.5,50a2.006,2.006,0,0,1-2,2H45.1a2,2,0,0,1,0-4H67.5A2.006,2.006,0,0,1,69.5,50Zm0,12a2.006,2.006,0,0,1-2,2H45.1a2,2,0,0,1,0-4H67.5A2.006,2.006,0,0,1,69.5,62ZM38.3,50a2.006,2.006,0,0,1-2,2H32.5a2,2,0,0,1,0-4h3.8A2.006,2.006,0,0,1,38.3,50Zm0,12a2.006,2.006,0,0,1-2,2H32.5a2,2,0,0,1,0-4h3.8A2.006,2.006,0,0,1,38.3,62ZM69.5,38a2.006,2.006,0,0,1-2,2H45.1a2,2,0,0,1,0-4H67.5A2.006,2.006,0,0,1,69.5,38ZM38.3,38a2.006,2.006,0,0,1-2,2H32.5a2,2,0,0,1,0-4h3.8A2.006,2.006,0,0,1,38.3,38Z" transform="translate(-1533.164 -1201.956)" fill="#fff"/>
    <path id="Tracé_2" data-name="Tracé 2" d="M-1433.416-1217.468v111.963h-114.072v-111.963h114.072m.512-.532H-1548v113.027h115.1Z" fill="blue"/>
  </g>
</svg>
