<svg xmlns="http://www.w3.org/2000/svg" width="56" height="56" viewBox="0 0 56 56">
  <path id="Tracé_1" data-name="Tracé 1" d="M40,12A28,28,0,1,0,68,40,27.988,27.988,0,0,0,40,12Zm0,53.053A25.053,25.053,0,1,1,65.053,40,25.032,25.032,0,0,1,40,65.053ZM54.368,40a1.478,1.478,0,0,1-1.474,1.474H36.389a1.474,1.474,0,1,1,0-2.947H52.895A1.478,1.478,0,0,1,54.368,40Zm0,8.842a1.478,1.478,0,0,1-1.474,1.474H36.389a1.474,1.474,0,0,1,0-2.947H52.895A1.478,1.478,0,0,1,54.368,48.842ZM31.379,40a1.478,1.478,0,0,1-1.474,1.474h-2.8a1.474,1.474,0,1,1,0-2.947h2.8A1.478,1.478,0,0,1,31.379,40Zm0,8.842a1.478,1.478,0,0,1-1.474,1.474h-2.8a1.474,1.474,0,0,1,0-2.947h2.8A1.478,1.478,0,0,1,31.379,48.842ZM54.368,31.158a1.478,1.478,0,0,1-1.474,1.474H36.389a1.474,1.474,0,0,1,0-2.947H52.895A1.478,1.478,0,0,1,54.368,31.158Zm-22.989,0a1.478,1.478,0,0,1-1.474,1.474h-2.8a1.474,1.474,0,1,1,0-2.947h2.8A1.478,1.478,0,0,1,31.379,31.158Z" transform="translate(-12 -12)" fill="#fff"/>
</svg>
