<svg xmlns="http://www.w3.org/2000/svg" width="56" height="56" viewBox="0 0 56 56">
  <path id="update" d="M52.63,13.258a28.519,28.519,0,0,0-35.255-3.21l-.03-4.079a1.258,1.258,0,0,0-1.282-1.234l-2.543.019a1.257,1.257,0,0,0-1.262,1.252l.07,9.3a2.515,2.515,0,0,0,2.544,2.466h.02l9.521-.069a1.257,1.257,0,0,0,1.262-1.253l-.02-2.486a1.258,1.258,0,0,0-1.281-1.233l-1.618.011a23.322,23.322,0,0,1,26.3,4.05A21.926,21.926,0,0,1,53.895,41.86a1.217,1.217,0,0,0,.555,1.616l2.27,1.133a1.305,1.305,0,0,0,1.755-.58A26.8,26.8,0,0,0,52.63,13.258ZM51.112,47.7h-.02l-9.521.068a1.257,1.257,0,0,0-1.262,1.253l.02,2.486a1.258,1.258,0,0,0,1.281,1.233l1.617-.011a23.325,23.325,0,0,1-26.3-4.05,21.926,21.926,0,0,1-4.837-25.063,1.217,1.217,0,0,0-.555-1.616l-2.27-1.133a1.305,1.305,0,0,0-1.755.58,26.8,26.8,0,0,0,5.845,30.771A28.52,28.52,0,0,0,48.608,55.42l.03,4.082a1.258,1.258,0,0,0,1.282,1.234l2.543-.019a1.257,1.257,0,0,0,1.262-1.252l-.07-9.3A2.513,2.513,0,0,0,51.112,47.7Z" transform="translate(-4.992 -4.735)" fill="#fff"/>
</svg>
